# xmcd
#
# Track frame offsets: 
#        150
#        12056
#        23062
#        33055
#        46292
#        60429
#        75466
#        91741
#        104247
#        118740
#        130890
#        147990
#        161190
#        173396
#        188058
#        204295
#        219238
#        233919
#
# Disc length: 3305 seconds
#
# Revision: 2
# Processed by: cddbd v1.5.2PL0 Copyright (c) Steve Scherf et al.
# Submitted via: ExactAudioCopyFreeDBPlugin 1.0
#
DISCID=e00ce712
DTITLE=John Lee Hooker -  Blues For My Baby
DYEAR=2014
DGENRE=Blues
TTITLE0=Boom Boom
TTITLE1=Baby, Please Don´t Go
TTITLE2=Dimples
TTITLE3=One Burben, One Scotch, One Beer
TTITLE4=Key To The Highway
TTITLE5=Smokestack Lightnin´
TTITLE6=Graveyard Blues
TTITLE7=Leave Me Wife Alone
TTITLE8=Sugar Mama
TTITLE9=I´m In The Mood For Love
TTITLE10=I Rolled And Turned And Cried The Whole Night Long
TTITLE11=Union Station Blues
TTITLE12=Crying All Night Long
TTITLE13=Burning Hell
TTITLE14=Blues For My Baby
TTITLE15=Ramblin´ By Myself
TTITLE16=Short-Haired Woman
TTITLE17=Louise
EXTD=
EXTT0=
EXTT1=
EXTT2=
EXTT3=
EXTT4=
EXTT5=
EXTT6=
EXTT7=
EXTT8=
EXTT9=
EXTT10=
EXTT11=
EXTT12=
EXTT13=
EXTT14=
EXTT15=
EXTT16=
EXTT17=
PLAYORDER=
